<svg width="247" height="40" viewBox="0 0 247 40" fill="none" xmlns="http://www.w3.org/2000/svg">
<g id="Group 2">
<g id="&#228;&#184;&#139;&#229;&#141;&#136;&#232;&#140;&#182;&#230;&#143;&#170;&#229;&#156;&#152;&#229;&#142;&#187;">
<path d="M0.946289 5.73143C0.946289 4.34139 2.07314 3.21455 3.46318 3.21455H35.7875C37.1776 3.21455 38.3044 4.34139 38.3044 5.73143C38.3044 7.12147 37.1776 8.24832 35.7875 8.24832H3.46318C2.07314 8.24832 0.946289 7.12147 0.946289 5.73143ZM16.0476 7.7491H21.4142V36.4749C21.4142 37.9569 20.2129 39.1582 18.7309 39.1582C17.249 39.1582 16.0476 37.9569 16.0476 36.4749V7.7491ZM21.6847 19.3862C20.2536 18.5609 19.8993 16.6318 20.9787 15.3812C21.7493 14.4884 23.0274 14.2283 24.0756 14.7687C27.3967 16.4809 31.3161 18.6747 34.2268 20.622C35.5478 21.5057 35.7455 23.3128 34.7458 24.5483C33.7156 25.8217 31.8219 25.9852 30.4992 25.0191C28.0172 23.2061 24.7316 21.1432 21.6847 19.3862Z" fill="#F0BD68"/>
<path d="M49.3274 2.44676C49.8152 1.09686 51.2157 0.268218 52.6132 0.595754C54.1409 0.953801 55.046 2.53836 54.4893 4.00534C52.8046 8.44456 50.5232 12.6582 48.1243 15.8527C47.3467 16.8882 45.9323 17.0706 44.8548 16.3522C43.4927 15.4441 43.1654 13.4019 44.1654 12.1059C46.2397 9.41752 48.0433 5.99966 49.3274 2.44676ZM50.6057 6.73463C51.0214 5.90309 51.8713 5.37782 52.801 5.37782H74.3313C75.6869 5.37782 76.7858 6.47673 76.7858 7.83231C76.7858 9.18789 75.6869 10.2868 74.3313 10.2868H52.801C50.9764 10.2868 49.7897 8.36662 50.6057 6.73463ZM42.423 21.4568C42.423 20.0668 43.5498 18.9399 44.9398 18.9399H77.5138C78.9039 18.9399 80.0307 20.0668 80.0307 21.4568C80.0307 22.8468 78.9038 23.9737 77.5138 23.9737H44.9398C43.5498 23.9737 42.423 22.8468 42.423 21.4568ZM58.6475 10.1828C58.6475 8.7468 59.8116 7.5827 61.2476 7.5827C62.6836 7.5827 63.8477 8.7468 63.8477 10.1828V36.6413C63.8477 38.0773 62.6836 39.2414 61.2476 39.2414C59.8116 39.2414 58.6475 38.0773 58.6475 36.6413V10.1828Z" fill="#F0BD68"/>
<path d="M103.432 11.386C104.198 11.0238 105.101 11.1723 105.766 11.6965C108.971 14.2224 113.942 16.4999 118.977 17.9618C120.478 18.3976 121.045 20.517 120.165 21.809C119.668 22.5386 118.832 22.8213 117.988 22.563C112.564 20.903 107.022 18.0189 102.936 14.5758C101.855 13.6652 102.155 11.9904 103.432 11.386ZM100.944 10.1622C101.683 9.37191 102.824 9.0366 103.825 9.44805C105.228 10.0251 105.725 11.7638 104.697 12.8796C100.517 17.4161 94.5222 20.5839 87.641 22.6924C86.7523 22.9647 85.8541 22.6311 85.3471 21.8522C84.5176 20.5779 85.0588 18.5607 86.5144 18.1215C92.459 16.3278 97.7056 13.6262 100.944 10.1622ZM83.9828 6.06425C83.9828 4.83504 84.9793 3.83857 86.2085 3.83857H99.4794C100.709 3.83857 101.705 4.83504 101.705 6.06425C101.705 7.29345 100.709 8.28992 99.4794 8.28992H86.2085C84.9793 8.28992 83.9828 7.29345 83.9828 6.06425ZM91.8455 2.69452C91.8455 1.30449 92.9724 0.177637 94.3624 0.177637C95.7524 0.177637 96.8793 1.30449 96.8793 2.69452V9.72518C96.8793 11.1152 95.7524 12.2421 94.3624 12.2421C92.9724 12.2421 91.8455 11.1152 91.8455 9.72518V2.69452ZM108.944 2.69453C108.944 1.30449 110.071 0.177637 111.461 0.177637C112.851 0.177637 113.978 1.30449 113.978 2.69453V9.72517C113.978 11.1152 112.851 12.2421 111.461 12.2421C110.071 12.2421 108.944 11.1152 108.944 9.72517V2.69453ZM103.536 6.04344C103.536 4.80275 104.541 3.79697 105.782 3.79697H119.302C120.543 3.79697 121.549 4.80275 121.549 6.04344C121.549 7.28414 120.543 8.28992 119.302 8.28992H105.782C104.541 8.28992 103.536 7.28414 103.536 6.04344Z" fill="#F0BD68"/>
<path d="M137.066 14.2389C137.066 12.9523 138.109 11.9093 139.396 11.9093H146.593C147.88 11.9093 148.923 12.9523 148.923 14.2389C148.923 15.5256 147.88 16.5686 146.593 16.5686H139.396C138.109 16.5686 137.066 15.5256 137.066 14.2389ZM141.518 5.79384C141.518 4.62207 142.468 3.67216 143.639 3.67216C144.811 3.67216 145.761 4.62207 145.761 5.79384V37.1197C145.761 38.2915 144.811 39.2414 143.639 39.2414C142.468 39.2414 141.518 38.2915 141.518 37.1197V5.79384ZM145.831 1.199C146.764 0.87113 147.821 1.1124 148.458 1.86849C149.454 3.05045 148.969 4.84828 147.477 5.24968C144.921 5.93699 142.134 6.43708 139.521 6.79945C138.661 6.91873 137.879 6.39653 137.608 5.57184C137.257 4.50626 137.859 3.19963 138.96 2.98727C141.395 2.51783 143.853 1.89447 145.831 1.199ZM140.531 15.7488C140.721 14.8629 141.62 14.3028 142.488 14.5632C143.216 14.7818 143.669 15.5096 143.526 16.2568C142.655 20.8281 141.239 25.9902 139.456 29.9078C138.829 31.2856 136.758 31.0475 135.986 29.7454C135.617 29.1234 135.672 28.4149 136.042 27.7934C137.938 24.6034 139.635 19.9245 140.531 15.7488ZM144.516 19.0183C145.067 18.2564 146.159 18.2277 146.719 18.9826C147.631 20.2126 148.809 21.8596 149.534 22.8882C149.878 23.3772 149.92 24.0139 149.651 24.5479C149.006 25.8245 147.063 25.7608 146.432 24.4773C145.741 23.0706 144.987 21.6315 144.42 20.5852C144.15 20.0869 144.185 19.4778 144.516 19.0183ZM125.049 23.3075C124.748 22.023 125.548 20.7376 126.827 20.4144C128.949 19.8783 131.432 19.2051 133.952 18.5085C135.275 18.1429 136.62 19.016 136.821 20.3733C136.986 21.4872 136.314 22.5551 135.237 22.8836C132.795 23.6283 130.31 24.3714 128.043 25.0453C126.731 25.4353 125.362 24.6399 125.049 23.3075ZM125.127 10.37C125.127 9.10633 126.151 8.08192 127.415 8.08192H134.071C135.335 8.08192 136.359 9.10633 136.359 10.37C136.359 11.6337 135.335 12.6581 134.071 12.6581H127.415C126.151 12.6581 125.127 11.6337 125.127 10.37ZM129.204 2.32011C129.204 1.13685 130.163 0.177637 131.346 0.177637C132.529 0.177637 133.489 1.13686 133.489 2.32011V34.2492C133.489 36.4125 133.114 37.619 131.908 38.3678C131.001 38.9181 129.742 39.141 128.013 39.2128C127.106 39.2504 126.359 38.6612 126.145 37.7788C125.83 36.4841 126.759 34.9723 128.091 34.9366C128.283 34.9314 128.435 34.9242 128.538 34.9149C129.037 34.9149 129.204 34.7485 129.204 34.2076V2.32011Z" fill="#F0BD68"/>
<path d="M174.383 8.78914C174.383 8.03094 174.997 7.4163 175.756 7.4163H196.016C196.774 7.4163 197.388 8.03094 197.388 8.78914C197.388 9.54735 196.774 10.162 196.016 10.162H175.756C174.997 10.162 174.383 9.54735 174.383 8.78914ZM173.842 26.1578C173.842 25.411 174.447 24.8057 175.194 24.8057H196.619C197.366 24.8057 197.971 25.411 197.971 26.1578C197.971 26.9045 197.366 27.5098 196.619 27.5098H175.194C174.447 27.5098 173.842 26.9045 173.842 26.1578ZM179.195 30.4801C178.499 29.5716 178.758 28.2138 179.79 27.7185C180.418 27.4168 181.171 27.5262 181.653 28.03C182.035 28.4287 182.414 28.8555 182.758 29.2754C183.421 30.0835 183.086 31.2288 182.152 31.696C181.257 32.1432 180.157 31.7945 179.571 30.9846C179.45 30.818 179.324 30.6492 179.195 30.4801ZM179.978 16.5686C179.622 16.5686 179.333 16.8573 179.333 17.2134C179.333 17.5696 179.622 17.8583 179.978 17.8583H191.71C192.066 17.8583 192.355 17.5696 192.355 17.2134C192.355 16.8573 192.066 16.5686 191.71 16.5686H179.978ZM179.937 13.4069C179.604 13.4069 179.333 13.677 179.333 14.0101C179.333 14.3433 179.604 14.6133 179.937 14.6133H191.751C192.085 14.6133 192.355 14.3433 192.355 14.0101C192.355 13.677 192.085 13.4069 191.751 13.4069H179.937ZM175.548 14.3684C175.548 12.7116 176.891 11.3684 178.548 11.3684H193.307C194.964 11.3684 196.307 12.7116 196.307 14.3684V16.8967C196.307 18.5536 194.964 19.8967 193.307 19.8967H178.548C176.891 19.8967 175.548 18.5536 175.548 16.8967V14.3684ZM188.486 25.6585C188.486 24.5212 189.408 23.5993 190.545 23.5993C191.682 23.5993 192.604 24.5212 192.604 25.6585V30.1307C192.604 31.7532 192.271 32.2524 191.065 32.6268C190.091 32.9516 188.709 32.9946 186.839 33.0003C186.323 33.0019 185.878 32.6012 185.706 32.1149C185.432 31.3407 185.975 30.496 186.796 30.4947C187.317 30.4938 187.746 30.4834 187.945 30.4635C188.319 30.4635 188.486 30.3387 188.486 29.9643V25.6585ZM174.596 22.679C174.548 21.9172 175.156 21.2749 175.919 21.2787C180.686 21.3021 187.174 21.2668 193.617 21.1993C194.262 21.1925 194.778 21.7326 194.742 22.3763C194.709 22.9512 194.244 23.4066 193.669 23.4262C187.339 23.6416 180.901 23.8219 175.928 23.9111C175.225 23.9237 174.64 23.3804 174.596 22.679ZM192.307 22.1578C191.577 21.4887 191.625 20.2861 192.449 19.7365C192.945 19.4063 193.594 19.4091 194.066 19.7711C194.935 20.4365 195.819 21.2087 196.548 21.9241C197.196 22.5591 197.073 23.5939 196.347 24.1362C195.637 24.6655 194.627 24.5177 194.028 23.8663C193.511 23.3047 192.913 22.7126 192.307 22.1578ZM183.785 7.95711C183.785 6.8313 184.697 5.91864 185.823 5.91864C186.949 5.91864 187.862 6.8313 187.862 7.95711V20.1863C187.862 21.2797 186.999 22.1784 185.906 22.223C184.749 22.2703 183.785 21.3447 183.785 20.1863V7.95711ZM168.517 4.55049C168.517 2.89363 169.86 1.55049 171.517 1.55049H200.629C202.286 1.55049 203.629 2.89363 203.629 4.55049V36.7869C203.629 38.0966 202.567 39.1582 201.257 39.1582C199.948 39.1582 198.886 38.0966 198.886 36.7869V8.33622C198.886 6.67936 197.543 5.33622 195.886 5.33622H176.052C174.395 5.33622 173.052 6.67937 173.052 8.33622V36.9741C173.052 38.2263 172.037 39.2414 170.784 39.2414C169.532 39.2414 168.517 38.2263 168.517 36.9741V4.55049ZM170.722 35.3101C170.722 34.2647 171.569 33.4172 172.615 33.4172H198.907C199.952 33.4172 200.8 34.2647 200.8 35.3101C200.8 36.3555 199.952 37.203 198.907 37.203H172.615C171.569 37.203 170.722 36.3555 170.722 35.3101Z" fill="#F0BD68"/>
<path d="M211.866 8.41473C211.866 7.03618 212.983 5.91864 214.362 5.91864H241.195C242.573 5.91864 243.691 7.03618 243.691 8.41473C243.691 9.79328 242.573 10.9108 241.195 10.9108H214.362C212.983 10.9108 211.866 9.79328 211.866 8.41473ZM208.662 19.3351C208.662 17.9451 209.789 16.8182 211.179 16.8182H244.169C245.559 16.8182 246.686 17.9451 246.686 19.3351C246.686 20.7252 245.559 21.852 244.169 21.852H211.179C209.789 21.852 208.662 20.7252 208.662 19.3351ZM224.929 2.79853C224.929 1.32807 226.121 0.136036 227.591 0.136036C229.062 0.136036 230.254 1.32808 230.254 2.79853V16.7766C230.254 18.2471 229.062 19.4391 227.591 19.4391C226.121 19.4391 224.929 18.2471 224.929 16.7766V2.79853ZM233.417 27.6438C232.441 26.3434 232.893 24.446 234.38 23.7894C235.365 23.3548 236.521 23.6091 237.205 24.4399C239.766 27.5496 242.315 31.1735 244.098 34.2242C244.836 35.4862 244.314 37.0752 243.016 37.7465C241.629 38.4633 239.919 37.851 239.176 36.4784C237.691 33.7365 235.571 30.514 233.417 27.6438ZM212.615 38.2014C212.127 38.2014 211.444 37.778 210.77 37.1853C209.38 35.9619 210.139 33.7965 211.673 32.7592C212.633 32.1096 213.563 31.3774 214.112 30.7547C215.318 29.5495 218.957 24.8924 221.364 20.1114C221.688 19.468 222.209 18.9407 222.881 18.6816C225.145 17.8087 230.147 16.2496 227.466 20.7288C224.081 26.3846 219.59 31.8355 215.659 35.4962C215.601 35.5504 215.568 35.6257 215.568 35.7053C215.568 35.7053 215.568 38.2014 212.615 38.2014ZM212.615 38.2014C211.314 37.1503 211.413 35.1377 212.809 34.2186L215.067 32.7336C215.504 32.4455 216.01 32.2772 216.533 32.2453L236.187 31.0478C237.747 30.9527 239.128 32.071 239.476 33.5943C239.645 34.3315 239.817 35.014 239.947 35.4973C217.732 37.2446 214.252 38.2014 212.615 38.2014Z" fill="#F0BD68"/>
</g>
<path id="Subtract" d="M101.82 18.519C100.703 18.519 99.8413 19.5028 99.9884 20.6102C97.6708 21.2296 95.6786 22.5387 94.3619 24.3073C93.0451 26.076 92.488 28.1911 92.7885 30.2812L93.9351 38.2451C94.0217 38.756 94.3351 39.2172 94.8083 39.5299C95.2814 39.8425 95.8768 39.9818 96.4667 39.9179C97.0567 39.854 97.5944 39.5919 97.9647 39.1879C98.3349 38.7838 98.5083 38.2699 98.4477 37.7561L97.3011 29.7923C97.1506 28.7509 97.381 27.6948 97.9596 26.7735C98.5383 25.8521 99.436 25.1122 100.526 24.6585L100.739 26.2608L100.739 38.0006C100.75 38.5185 100.994 39.0122 101.419 39.3753C101.845 39.7384 102.417 39.9418 103.013 39.9418C103.61 39.9418 104.182 39.7384 104.608 39.3753C105.033 39.0122 105.277 38.5185 105.287 38.0006L105.287 26.2608L105.5 24.6599C106.589 25.1133 107.487 25.8529 108.066 26.774C108.645 27.6951 108.876 28.751 108.726 29.7923L107.581 37.7547C107.543 38.0123 107.565 38.2738 107.644 38.5241C107.723 38.7745 107.858 39.0089 108.041 39.2139C108.225 39.4189 108.453 39.5904 108.713 39.7188C108.973 39.8471 109.259 39.9297 109.556 39.9619C110.154 40.027 110.756 39.8816 111.232 39.5602C111.708 39.2388 112.018 38.7662 112.093 38.2465L113.238 30.2812C113.539 28.1911 112.982 26.076 111.665 24.3073C110.348 22.5387 108.356 21.2296 106.038 20.6102C106.186 19.5028 105.324 18.519 104.207 18.519H101.82Z" fill="#F0BD68"/>
<g id="Group 1">
<path id="Vector 3 (Stroke)" fill-rule="evenodd" clip-rule="evenodd" d="M147.519 10.2371C147.448 9.09053 148.301 7.96725 149.425 7.72821C150.974 7.39861 152.744 7.48589 154.321 8.35293C155.924 9.23395 157.177 10.8378 157.825 13.2377C159.087 17.9058 158.102 25.6719 153.132 38.0487C152.679 39.177 151.476 39.8369 150.445 39.5225C149.415 39.2082 148.946 38.0387 149.4 36.9104C154.279 24.7602 154.775 18.1915 153.887 14.905C153.46 13.3276 152.731 12.5494 152.035 12.1669C151.314 11.7704 150.47 11.7128 149.682 11.8804C148.558 12.1195 147.59 11.3837 147.519 10.2371Z" fill="#F0BD68"/>
<path id="Vector 4 (Stroke)" fill-rule="evenodd" clip-rule="evenodd" d="M164.298 32.2227C164.322 33.3712 163.412 34.3696 162.267 34.4526C160.694 34.5665 158.921 34.2292 157.378 33.1406C155.811 32.0361 154.631 30.2637 154.084 27.7906C153.018 22.9754 154.309 15.3799 159.767 3.72949C160.264 2.66791 161.504 2.169 162.537 2.61517C163.569 3.06133 164.003 4.2836 163.506 5.34519C158.148 16.7807 157.381 23.2733 158.137 26.6896C158.501 28.3322 159.201 29.2114 159.876 29.6869C160.573 30.1784 161.4 30.3497 162.179 30.2933C163.325 30.2103 164.273 31.0741 164.298 32.2227Z" fill="#F0BD68"/>
</g>
<circle id="Ellipse 22" cx="155.405" cy="3.24414" r="2.60009" fill="#F0BD68"/>
</g>
</svg>
