<svg width="20" height="16" viewBox="0 0 20 16" fill="none" xmlns="http://www.w3.org/2000/svg">
<g id="down arrow">
<path id="Vector" d="M9.17782 15.0685C9.26956 15.2018 9.39231 15.3107 9.53551 15.386C9.6787 15.4612 9.83805 15.5005 9.99981 15.5005C10.1616 15.5005 10.3209 15.4612 10.4641 15.386C10.6073 15.3107 10.7301 15.2018 10.8218 15.0685L19.8218 2.06851C19.926 1.91857 19.9871 1.74294 19.9984 1.56072C20.0098 1.37849 19.971 1.19664 19.8863 1.03491C19.8016 0.873176 19.6741 0.73776 19.5179 0.64337C19.3616 0.54898 19.1824 0.499225 18.9998 0.499513H0.999815C0.817658 0.500265 0.639153 0.55066 0.483495 0.645276C0.327838 0.739892 0.200917 0.875151 0.116383 1.03651C0.0318493 1.19786 -0.00710004 1.37921 0.00372392 1.56104C0.0145479 1.74288 0.0747356 1.91833 0.177815 2.06851L9.17782 15.0685Z" fill="#F0BD68"/>
</g>
</svg>
