<svg width="26" height="26" viewBox="0 0 26 26" fill="none" xmlns="http://www.w3.org/2000/svg">
<path d="M1.3335 12.9998C1.3335 8.60034 1.3335 6.4 2.70083 5.03384C4.067 3.6665 6.26733 3.6665 10.6668 3.6665H15.3335C19.733 3.6665 21.9333 3.6665 23.2995 5.03384C24.6668 6.4 24.6668 8.60034 24.6668 12.9998V15.3332C24.6668 19.7327 24.6668 21.933 23.2995 23.2992C21.9333 24.6665 19.733 24.6665 15.3335 24.6665H10.6668C6.26733 24.6665 4.067 24.6665 2.70083 23.2992C1.3335 21.933 1.3335 19.7327 1.3335 15.3332V12.9998Z" stroke="#1E1E1E" stroke-width="2"/>
<path d="M7.16699 3.6665V1.9165M18.8337 3.6665V1.9165M1.91699 9.49984H24.0837" stroke="#1E1E1E" stroke-width="2" stroke-linecap="round"/>
<path d="M20 18.8333C20 19.1428 19.8771 19.4395 19.6583 19.6583C19.4395 19.8771 19.1428 20 18.8333 20C18.5239 20 18.2272 19.8771 18.0084 19.6583C17.7896 19.4395 17.6667 19.1428 17.6667 18.8333C17.6667 18.5239 17.7896 18.2272 18.0084 18.0084C18.2272 17.7896 18.5239 17.6667 18.8333 17.6667C19.1428 17.6667 19.4395 17.7896 19.6583 18.0084C19.8771 18.2272 20 18.5239 20 18.8333ZM20 14.1667C20 14.4761 19.8771 14.7728 19.6583 14.9916C19.4395 15.2104 19.1428 15.3333 18.8333 15.3333C18.5239 15.3333 18.2272 15.2104 18.0084 14.9916C17.7896 14.7728 17.6667 14.4761 17.6667 14.1667C17.6667 13.8572 17.7896 13.5605 18.0084 13.3417C18.2272 13.1229 18.5239 13 18.8333 13C19.1428 13 19.4395 13.1229 19.6583 13.3417C19.8771 13.5605 20 13.8572 20 14.1667ZM14.1667 18.8333C14.1667 19.1428 14.0437 19.4395 13.825 19.6583C13.6062 19.8771 13.3094 20 13 20C12.6906 20 12.3938 19.8771 12.175 19.6583C11.9562 19.4395 11.8333 19.1428 11.8333 18.8333C11.8333 18.5239 11.9562 18.2272 12.175 18.0084C12.3938 17.7896 12.6906 17.6667 13 17.6667C13.3094 17.6667 13.6062 17.7896 13.825 18.0084C14.0437 18.2272 14.1667 18.5239 14.1667 18.8333ZM14.1667 14.1667C14.1667 14.4761 14.0437 14.7728 13.825 14.9916C13.6062 15.2104 13.3094 15.3333 13 15.3333C12.6906 15.3333 12.3938 15.2104 12.175 14.9916C11.9562 14.7728 11.8333 14.4761 11.8333 14.1667C11.8333 13.8572 11.9562 13.5605 12.175 13.3417C12.3938 13.1229 12.6906 13 13 13C13.3094 13 13.6062 13.1229 13.825 13.3417C14.0437 13.5605 14.1667 13.8572 14.1667 14.1667ZM8.33333 18.8333C8.33333 19.1428 8.21042 19.4395 7.99162 19.6583C7.77283 19.8771 7.47609 20 7.16667 20C6.85725 20 6.5605 19.8771 6.34171 19.6583C6.12292 19.4395 6 19.1428 6 18.8333C6 18.5239 6.12292 18.2272 6.34171 18.0084C6.5605 17.7896 6.85725 17.6667 7.16667 17.6667C7.47609 17.6667 7.77283 17.7896 7.99162 18.0084C8.21042 18.2272 8.33333 18.5239 8.33333 18.8333ZM8.33333 14.1667C8.33333 14.4761 8.21042 14.7728 7.99162 14.9916C7.77283 15.2104 7.47609 15.3333 7.16667 15.3333C6.85725 15.3333 6.5605 15.2104 6.34171 14.9916C6.12292 14.7728 6 14.4761 6 14.1667C6 13.8572 6.12292 13.5605 6.34171 13.3417C6.5605 13.1229 6.85725 13 7.16667 13C7.47609 13 7.77283 13.1229 7.99162 13.3417C8.21042 13.5605 8.33333 13.8572 8.33333 14.1667Z" fill="#1E1E1E"/>
</svg>
