<svg width="24" height="24" viewBox="0 0 24 24" fill="none" xmlns="http://www.w3.org/2000/svg">
<g id="ic:round-money-off">
<path id="Vector" d="M12.5 6.9C13.92 6.9 14.63 7.44 14.89 8.3C15.02 8.73 15.45 9 15.9 9H15.96C16.66 9 17.18 8.29 16.93 7.64C16.49 6.49 15.52 5.56 14 5.19V4.5C14 3.67 13.33 3 12.5 3C11.67 3 11 3.67 11 4.5V5.16C10.61 5.24 10.25 5.37 9.89998 5.52L11.41 7.03C11.73 6.95 12.1 6.9 12.5 6.9ZM4.76998 4.62C4.67728 4.71251 4.60373 4.8224 4.55355 4.94338C4.50337 5.06435 4.47754 5.19403 4.47754 5.325C4.47754 5.45597 4.50337 5.58565 4.55355 5.70662C4.60373 5.8276 4.67728 5.93749 4.76998 6.03L7.49998 8.77C7.49998 10.85 9.05998 11.99 11.41 12.68L14.92 16.19C14.58 16.68 13.87 17.1 12.5 17.1C10.85 17.1 9.99998 16.51 9.66998 15.67C9.51998 15.28 9.17998 15 8.76998 15H8.59998C7.87998 15 7.35998 15.74 7.64998 16.39C8.23998 17.72 9.53998 18.51 11.01 18.83V19.5C11.01 20.33 11.68 21 12.51 21C13.34 21 14.01 20.33 14.01 19.5V18.85C14.97 18.67 15.84 18.3 16.47 17.73L17.98 19.24C18.0726 19.3326 18.1825 19.406 18.3034 19.4561C18.4244 19.5062 18.5541 19.532 18.685 19.532C18.8159 19.532 18.9456 19.5062 19.0665 19.4561C19.1875 19.406 19.2974 19.3326 19.39 19.24C19.4826 19.1474 19.556 19.0375 19.6061 18.9165C19.6562 18.7956 19.682 18.6659 19.682 18.535C19.682 18.4041 19.6562 18.2744 19.6061 18.1535C19.556 18.0325 19.4826 17.9226 19.39 17.83L6.17998 4.62C6.08747 4.5273 5.97758 4.45375 5.85661 4.40357C5.73563 4.35339 5.60595 4.32756 5.47498 4.32756C5.34401 4.32756 5.21433 4.35339 5.09336 4.40357C4.97239 4.45375 4.8625 4.5273 4.76998 4.62Z" fill="#1E1E1E"/>
</g>
</svg>
